<svg xmlns="http://www.w3.org/2000/svg" viewBox="0 0 400 400">
  <!-- Green outer circle -->
  <circle cx="200" cy="200" r="190" fill="#006A4E" stroke="#ffffff" stroke-width="4"/>
  
  <!-- Inner white border circle -->
  <circle cx="200" cy="200" r="170" fill="none" stroke="#ffffff" stroke-width="3"/>
  
  <!-- Red circle background for flag -->
  <circle cx="200" cy="200" r="120" fill="#F42A41"/>
  
  <!-- Bangladesh map in yellow/gold -->
  <path d="M160 130 C175 125, 210 120, 235 130 C250 140, 260 155, 255 175 C250 195, 240 210, 225 220 C210 230, 195 235, 180 230 C165 225, 155 210, 150 190 C145 170, 150 150, 160 130 Z M210 160 C220 158, 230 165, 232 175 C234 185, 225 195, 215 197 C205 199, 195 192, 193 182 C191 172, 200 165, 210 160 Z" fill="#FFCC00"/>
  
  <!-- Four stars around the red circle -->
  <g fill="#FFCC00">
    <!-- Top star -->
    <polygon points="200,70 205,85 220,85 208,95 213,110 200,100 187,110 192,95 180,85 195,85"/>
    
    <!-- Right star -->
    <polygon points="330,200 325,215 310,215 322,225 317,240 330,230 343,240 338,225 350,215 335,215"/>
    
    <!-- Bottom star -->
    <polygon points="200,330 195,315 180,315 192,305 187,290 200,300 213,290 208,305 220,315 205,315"/>
    
    <!-- Left star -->
    <polygon points="70,200 75,185 90,185 78,175 83,160 70,170 57,160 62,175 50,185 65,185"/>
  </g>
  
  <!-- Top Bengali text -->
  <path d="M90 90 Q95 85, 105 85 Q115 85, 120 90 Q125 95, 120 100 Q115 105, 105 105 Q95 105, 90 100 Q85 95, 90 90 Z" fill="#ffffff"/>
  <text x="200" y="50" text-anchor="middle" fill="#ffffff" font-family="Arial, sans-serif" font-size="24" font-weight="bold">গণপ্রজাতন্ত্রী বাংলাদেশ</text>
  
  <!-- Bottom Bengali text -->
  <text x="200" y="370" text-anchor="middle" fill="#ffffff" font-family="Arial, sans-serif" font-size="24" font-weight="bold">সরকার</text>
</svg>
