<svg xmlns="http://www.w3.org/2000/svg" viewBox="0 0 200 200">
  <defs>
    <style>
      .brac-pink { fill: #E91E63; }
    </style>
  </defs>
  
  <!-- BRAC Logo - Pink curved design -->
  <g transform="translate(25, 25)">
    <!-- Top left curve -->
    <path class="brac-pink" d="M0,0 Q75,0 75,75 Q75,37.5 37.5,37.5 Q0,37.5 0,75 Z"/>
    
    <!-- Top right curve -->
    <path class="brac-pink" d="M75,0 L150,0 Q150,37.5 112.5,37.5 Q75,37.5 75,75 Q75,37.5 112.5,37.5 Q150,37.5 150,0"/>
    
    <!-- Bottom right curve -->
    <path class="brac-pink" d="M150,75 Q150,150 75,150 Q112.5,150 112.5,112.5 Q112.5,75 75,75 Q112.5,75 150,75"/>
    
    <!-- Bottom left curve -->
    <path class="brac-pink" d="M75,150 L0,150 Q0,112.5 37.5,112.5 Q75,112.5 75,75 Q75,112.5 37.5,112.5 Q0,112.5 0,150"/>
    
    <!-- Center circle (white) -->
    <circle cx="75" cy="75" r="25" fill="white"/>
  </g>
</svg>
